<?xml version="1.0" encoding="UTF-8" standalone="no"?><!DOCTYPE svg PUBLIC "-//W3C//DTD SVG 1.1//EN" "http://www.w3.org/Graphics/SVG/1.1/DTD/svg11.dtd"><svg width="100%" height="100%" viewBox="0 0 2011 928" version="1.1" xmlns="http://www.w3.org/2000/svg" xmlns:xlink="http://www.w3.org/1999/xlink" xml:space="preserve" xmlns:serif="http://www.serif.com/" style="fill-rule:evenodd;clip-rule:evenodd;stroke-linejoin:round;stroke-miterlimit:1.41421;"><g><path id="inc" d="M1811.78,748.385c-50.595,18.311 -78.758,71.865 -62.852,119.517c15.906,47.653 69.897,71.474 120.492,53.164c50.595,-18.311 78.758,-71.865 62.852,-119.518c-15.906,-47.652 -69.897,-71.474 -120.492,-53.163Zm-1651.2,-484.206c13.209,0.001 19.813,6.605 19.813,19.814l0,620.821c0,13.209 -6.604,19.813 -19.813,19.814l-130.769,0c-13.209,0 -19.814,-6.605 -19.814,-19.814l0,-620.821c0,-13.209 6.605,-19.813 19.814,-19.814l130.769,0Zm537.605,-5.283c143.978,0 194.171,97.746 194.171,232.478l0,413.44c0,13.209 -6.604,19.813 -19.813,19.814l-130.769,0c-13.209,0 -19.813,-6.605 -19.813,-19.814l0,-433.254c0,-44.91 -33.022,-60.761 -71.329,-60.761l-15.85,0c-56.799,0 -97.747,23.776 -112.277,47.552l0,446.463c0,13.209 -6.604,19.813 -19.813,19.814l-130.769,0c-13.209,0 -19.813,-6.605 -19.813,-19.814l0,-620.821c0,-13.209 6.604,-19.813 19.813,-19.814l130.769,0c13.209,0.001 19.813,6.605 19.813,19.814l0,58.119c19.814,-33.022 70.008,-83.216 167.754,-83.216l7.926,0Zm503.261,-258.896c13.21,0 19.814,6.605 19.814,19.813l0,458.352l187.567,-198.135c7.925,-9.246 19.813,-15.85 30.381,-15.851l136.052,0c17.173,0.001 33.022,19.814 9.246,44.911l-196.813,211.343l229.836,368.53c7.925,14.53 6.604,35.664 -15.851,35.665l-124.164,0c-17.172,0 -33.023,-5.284 -43.59,-23.776l-161.149,-266.822l-51.515,51.515l0,219.269c0,13.209 -6.604,19.813 -19.814,19.814l-130.768,0c-13.209,0 -19.814,-6.605 -19.814,-19.814l0,-885.001c0,-13.208 6.604,-19.813 19.814,-19.813l130.768,0Zm-1131.88,31.383c-49.584,14.992 -79.423,65.023 -66.591,111.655c12.833,46.631 63.507,72.319 113.092,57.326c49.585,-14.992 79.423,-65.023 66.591,-111.654c-12.832,-46.632 -63.507,-72.319 -113.092,-57.327Z" style="fill:#0e0e0e;"/><path d="M1795.61,594.617l-28.783,-0.213c-13.209,0 -19.813,-6.605 -19.813,-19.814l0,-554.777c0,-13.208 6.604,-19.813 19.813,-19.813l134.732,0c13.209,0 19.813,6.605 19.813,19.813l-0.081,18.721c-51.238,12.482 -91.137,64.695 -94.329,129.8c-2.564,52.29 19.2,99.658 53.607,126.46c-25.633,17.438 -44.472,46.887 -49.193,82.159c-5.141,38.403 7.648,74.783 31.364,98.837c-23.939,10.508 -45.741,31.983 -58.147,60.301c-8.77,20.019 -11.509,40.408 -8.983,58.526Z" style="fill:#0e0e0e;"/><path d="M1837.23,549.753c-9.822,22.417 -2.309,46.088 16.766,52.827c19.074,6.738 42.534,-5.992 52.356,-28.41c9.821,-22.418 2.308,-46.089 -16.766,-52.827c-19.075,-6.739 -42.535,5.992 -52.356,28.41Zm35.572,-164.125c-6.558,34.707 11.744,67.29 40.844,72.716c29.1,5.426 58.05,-18.347 64.607,-53.054c6.558,-34.707 -11.744,-67.29 -40.844,-72.716c-29.1,-5.425 -58.05,18.347 -64.607,53.054Zm-7.312,-204.559c-2.328,47.49 28.18,88.336 68.085,91.158c39.905,2.821 74.194,-33.443 76.522,-80.933c2.329,-47.49 -28.179,-88.336 -68.084,-91.158c-39.906,-2.821 -74.194,33.444 -76.523,80.933Z" style="fill:#0e0e0e;"/></g></svg>