<?xml version="1.0" encoding="UTF-8" standalone="no"?>
<svg
   xmlns:dc="http://purl.org/dc/elements/1.1/"
   xmlns:cc="http://creativecommons.org/ns#"
   xmlns:rdf="http://www.w3.org/1999/02/22-rdf-syntax-ns#"
   xmlns:svg="http://www.w3.org/2000/svg"
   xmlns="http://www.w3.org/2000/svg"
   xmlns:sodipodi="http://sodipodi.sourceforge.net/DTD/sodipodi-0.dtd"
   xmlns:inkscape="http://www.inkscape.org/namespaces/inkscape"
   width="2090"
   height="1018"
   viewBox="0 0 2090 1018"
   version="1.1"
   xml:space="preserve"
   style="clip-rule:evenodd;fill-rule:evenodd;stroke-linejoin:round;stroke-miterlimit:1.41421"
   id="svg9"
   sodipodi:docname="ink-logo-white-bg.svg"
   inkscape:version="1.0.1 (3bc2e813f5, 2020-09-07)"><metadata
     id="metadata15"><rdf:RDF><cc:Work
         rdf:about=""><dc:format>image/svg+xml</dc:format><dc:type
           rdf:resource="http://purl.org/dc/dcmitype/StillImage" /><dc:title></dc:title></cc:Work></rdf:RDF></metadata><defs
     id="defs13" /><sodipodi:namedview
     pagecolor="#ffffff"
     bordercolor="#666666"
     borderopacity="1"
     objecttolerance="10"
     gridtolerance="10"
     guidetolerance="10"
     inkscape:pageopacity="0"
     inkscape:pageshadow="2"
     inkscape:window-width="1918"
     inkscape:window-height="1055"
     id="namedview11"
     showgrid="false"
     inkscape:zoom="0.32769766"
     inkscape:cx="676.97217"
     inkscape:cy="1157.2619"
     inkscape:window-x="0"
     inkscape:window-y="23"
     inkscape:window-maximized="0"
     inkscape:current-layer="svg9" /><rect
     style="fill:#ffffff;fill-opacity:1;stroke:none;stroke-width:0.927975"
     id="rect840"
     width="2090"
     height="1018"
     x="0"
     y="0" /><g
     id="g7"
     transform="translate(39.890122,45.38172)"><path
       id="inc"
       d="m 1811.78,748.385 c -50.595,18.311 -78.758,71.865 -62.852,119.517 15.906,47.653 69.897,71.474 120.492,53.164 50.595,-18.311 78.758,-71.865 62.852,-119.518 -15.906,-47.652 -69.897,-71.474 -120.492,-53.163 z M 160.58,264.179 c 13.209,0.001 19.813,6.605 19.813,19.814 v 620.821 c 0,13.209 -6.604,19.813 -19.813,19.814 H 29.811 c -13.209,0 -19.814,-6.605 -19.814,-19.814 V 283.993 c 0,-13.209 6.605,-19.813 19.814,-19.814 z m 537.605,-5.283 c 143.978,0 194.171,97.746 194.171,232.478 v 413.44 c 0,13.209 -6.604,19.813 -19.813,19.814 H 741.774 c -13.209,0 -19.813,-6.605 -19.813,-19.814 V 471.56 c 0,-44.91 -33.022,-60.761 -71.329,-60.761 h -15.85 c -56.799,0 -97.747,23.776 -112.277,47.552 v 446.463 c 0,13.209 -6.604,19.813 -19.813,19.814 H 371.923 c -13.209,0 -19.813,-6.605 -19.813,-19.814 V 283.993 c 0,-13.209 6.604,-19.813 19.813,-19.814 h 130.769 c 13.209,0.001 19.813,6.605 19.813,19.814 v 58.119 c 19.814,-33.022 70.008,-83.216 167.754,-83.216 z M 1201.446,0 c 13.21,0 19.814,6.605 19.814,19.813 V 478.165 L 1408.827,280.03 c 7.925,-9.246 19.813,-15.85 30.381,-15.851 h 136.052 c 17.173,0.001 33.022,19.814 9.246,44.911 l -196.813,211.343 229.836,368.53 c 7.925,14.53 6.604,35.664 -15.851,35.665 h -124.164 c -17.172,0 -33.023,-5.284 -43.59,-23.776 L 1272.775,634.03 1221.26,685.545 v 219.269 c 0,13.209 -6.604,19.813 -19.814,19.814 h -130.768 c -13.209,0 -19.814,-6.605 -19.814,-19.814 V 19.813 C 1050.864,6.605 1057.468,0 1070.678,0 Z M 69.566,31.383 C 19.982,46.375 -9.857,96.406 2.975,143.038 15.808,189.669 66.482,215.357 116.067,200.364 165.652,185.372 195.49,135.341 182.658,88.71 169.826,42.078 119.151,16.391 69.566,31.383 Z"
       style="fill:#0e0e0e" /><path
       d="m 1795.61,594.617 -28.783,-0.213 c -13.209,0 -19.813,-6.605 -19.813,-19.814 V 19.813 C 1747.014,6.605 1753.618,0 1766.827,0 h 134.732 c 13.209,0 19.813,6.605 19.813,19.813 l -0.081,18.721 c -51.238,12.482 -91.137,64.695 -94.329,129.8 -2.564,52.29 19.2,99.658 53.607,126.46 -25.633,17.438 -44.472,46.887 -49.193,82.159 -5.141,38.403 7.648,74.783 31.364,98.837 -23.939,10.508 -45.741,31.983 -58.147,60.301 -8.77,20.019 -11.509,40.408 -8.983,58.526 z"
       style="fill:#0e0e0e"
       id="path3" /><path
       d="m 1837.23,549.753 c -9.822,22.417 -2.309,46.088 16.766,52.827 19.074,6.738 42.534,-5.992 52.356,-28.41 9.821,-22.418 2.308,-46.089 -16.766,-52.827 -19.075,-6.739 -42.535,5.992 -52.356,28.41 z m 35.572,-164.125 c -6.558,34.707 11.744,67.29 40.844,72.716 29.1,5.426 58.05,-18.347 64.607,-53.054 6.558,-34.707 -11.744,-67.29 -40.844,-72.716 -29.1,-5.425 -58.05,18.347 -64.607,53.054 z m -7.312,-204.559 c -2.328,47.49 28.18,88.336 68.085,91.158 39.905,2.821 74.194,-33.443 76.522,-80.933 2.329,-47.49 -28.179,-88.336 -68.084,-91.158 -39.906,-2.821 -74.194,33.444 -76.523,80.933 z"
       style="fill:#0e0e0e"
       id="path5" /></g></svg>
