<svg width="135" height="20" viewBox="0 0 135 20" fill="none" xmlns="http://www.w3.org/2000/svg">
<rect width="135" height="20" rx="3" fill="#5A007E"/>
<rect width="135" height="20" rx="3" fill="url(#paint0_linear_301_42)" fill-opacity="0.1"/>
<g filter="url(#filter0_d_301_42)">
<path d="M7.24695 15.75V7.5H8.38758V8.47266H8.48523C8.55294 8.34766 8.6506 8.20312 8.7782 8.03906C8.90581 7.875 9.08289 7.73177 9.30945 7.60937C9.53601 7.48438 9.83549 7.42188 10.2079 7.42188C10.6923 7.42188 11.1246 7.54427 11.5048 7.78906C11.885 8.03385 12.1832 8.38672 12.3993 8.84766C12.618 9.30859 12.7274 9.86328 12.7274 10.5117C12.7274 11.1602 12.6193 11.7161 12.4032 12.1797C12.1871 12.6406 11.8902 12.9961 11.5126 13.2461C11.135 13.4935 10.704 13.6172 10.2196 13.6172C9.85503 13.6172 9.55685 13.556 9.32508 13.4336C9.09591 13.3112 8.91622 13.168 8.78601 13.0039C8.65581 12.8398 8.55555 12.694 8.48523 12.5664H8.41492V15.75H7.24695ZM8.39148 10.5C8.39148 10.9219 8.45268 11.2917 8.57508 11.6094C8.69747 11.9271 8.87456 12.1758 9.10633 12.3555C9.3381 12.5326 9.62195 12.6211 9.95789 12.6211C10.3068 12.6211 10.5985 12.5286 10.8329 12.3437C11.0673 12.1562 11.2443 11.9023 11.3641 11.582C11.4865 11.2617 11.5477 10.901 11.5477 10.5C11.5477 10.1042 11.4878 9.7487 11.368 9.43359C11.2509 9.11849 11.0738 8.86979 10.8368 8.6875C10.6024 8.50521 10.3095 8.41406 9.95789 8.41406C9.61935 8.41406 9.33289 8.5013 9.09851 8.67578C8.86674 8.85026 8.69096 9.09375 8.57117 9.40625C8.45138 9.71875 8.39148 10.0833 8.39148 10.5ZM14.146 13.5V7.5H15.2749V8.45312H15.3374C15.4468 8.13021 15.6395 7.8763 15.9155 7.69141C16.1942 7.50391 16.5093 7.41016 16.8609 7.41016C16.9338 7.41016 17.0197 7.41276 17.1187 7.41797C17.2202 7.42318 17.2997 7.42969 17.357 7.4375V8.55469C17.3101 8.54167 17.2267 8.52734 17.107 8.51172C16.9872 8.49349 16.8674 8.48437 16.7476 8.48437C16.4715 8.48437 16.2254 8.54297 16.0093 8.66016C15.7958 8.77474 15.6265 8.9349 15.5015 9.14062C15.3765 9.34375 15.314 9.57552 15.314 9.83594V13.5H14.146ZM20.7902 13.6211C20.2277 13.6211 19.7368 13.4922 19.3175 13.2344C18.8983 12.9766 18.5727 12.6159 18.341 12.1523C18.1092 11.6888 17.9933 11.1471 17.9933 10.5273C17.9933 9.90495 18.1092 9.36068 18.341 8.89453C18.5727 8.42839 18.8983 8.06641 19.3175 7.80859C19.7368 7.55078 20.2277 7.42188 20.7902 7.42188C21.3527 7.42188 21.8436 7.55078 22.2629 7.80859C22.6821 8.06641 23.0076 8.42839 23.2394 8.89453C23.4712 9.36068 23.5871 9.90495 23.5871 10.5273C23.5871 11.1471 23.4712 11.6888 23.2394 12.1523C23.0076 12.6159 22.6821 12.9766 22.2629 13.2344C21.8436 13.4922 21.3527 13.6211 20.7902 13.6211ZM20.7941 12.6406C21.1587 12.6406 21.4608 12.5443 21.7004 12.3516C21.9399 12.1589 22.117 11.9023 22.2316 11.582C22.3488 11.2617 22.4074 10.9089 22.4074 10.5234C22.4074 10.1406 22.3488 9.78906 22.2316 9.46875C22.117 9.14583 21.9399 8.88672 21.7004 8.69141C21.4608 8.49609 21.1587 8.39844 20.7941 8.39844C20.4269 8.39844 20.1222 8.49609 19.88 8.69141C19.6405 8.88672 19.4621 9.14583 19.3449 9.46875C19.2303 9.78906 19.173 10.1406 19.173 10.5234C19.173 10.9089 19.2303 11.2617 19.3449 11.582C19.4621 11.9023 19.6405 12.1589 19.88 12.3516C20.1222 12.5443 20.4269 12.6406 20.7941 12.6406ZM28.8016 11.0117V7.5H29.9734V13.5H28.825V12.4609H28.7625C28.6245 12.7813 28.4031 13.0482 28.0984 13.2617C27.7964 13.4727 27.4201 13.5781 26.9695 13.5781C26.5841 13.5781 26.243 13.4935 25.9461 13.3242C25.6518 13.1523 25.4201 12.8984 25.2508 12.5625C25.0841 12.2266 25.0008 11.8112 25.0008 11.3164V7.5H26.1687V11.1758C26.1687 11.5846 26.282 11.9102 26.5086 12.1523C26.7352 12.3945 27.0294 12.5156 27.3914 12.5156C27.6102 12.5156 27.8276 12.4609 28.0437 12.3516C28.2625 12.2422 28.4435 12.0768 28.5867 11.8555C28.7326 11.6341 28.8042 11.3529 28.8016 11.0117ZM33.8989 13.6172C33.4145 13.6172 32.9822 13.4935 32.602 13.2461C32.2244 12.9961 31.9275 12.6406 31.7114 12.1797C31.4978 11.7161 31.3911 11.1602 31.3911 10.5117C31.3911 9.86328 31.4991 9.30859 31.7153 8.84766C31.934 8.38672 32.2335 8.03385 32.6137 7.78906C32.9939 7.54427 33.4249 7.42188 33.9067 7.42188C34.2791 7.42188 34.5786 7.48438 34.8051 7.60937C35.0343 7.73177 35.2114 7.875 35.3364 8.03906C35.464 8.20312 35.5629 8.34766 35.6332 8.47266H35.7036V5.5H36.8715V13.5H35.7309V12.5664H35.6332C35.5629 12.694 35.4614 12.8398 35.3286 13.0039C35.1983 13.168 35.0187 13.3112 34.7895 13.4336C34.5603 13.556 34.2635 13.6172 33.8989 13.6172ZM34.1567 12.6211C34.4926 12.6211 34.7765 12.5326 35.0082 12.3555C35.2426 12.1758 35.4197 11.9271 35.5395 11.6094C35.6619 11.2917 35.7231 10.9219 35.7231 10.5C35.7231 10.0833 35.6632 9.71875 35.5434 9.40625C35.4236 9.09375 35.2478 8.85026 35.0161 8.67578C34.7843 8.5013 34.4978 8.41406 34.1567 8.41406C33.8051 8.41406 33.5121 8.50521 33.2778 8.6875C33.0434 8.86979 32.8663 9.11849 32.7465 9.43359C32.6293 9.7487 32.5707 10.1042 32.5707 10.5C32.5707 10.901 32.6306 11.2617 32.7504 11.582C32.8702 11.9023 33.0473 12.1562 33.2817 12.3437C33.5187 12.5286 33.8103 12.6211 34.1567 12.6211ZM39.8165 5.5V13.5H38.6485V5.5H39.8165ZM42.2361 15.75C42.0616 15.75 41.9027 15.7357 41.7595 15.707C41.6163 15.681 41.5095 15.6523 41.4392 15.6211L41.7204 14.6641C41.934 14.7214 42.1241 14.7461 42.2907 14.7383C42.4574 14.7305 42.6045 14.668 42.7321 14.5508C42.8624 14.4336 42.9769 14.2422 43.0759 13.9766L43.2204 13.5781L41.0251 7.5H42.2751L43.7946 12.1562H43.8571L45.3767 7.5H46.6306L44.1579 14.3008C44.0433 14.6133 43.8975 14.8776 43.7204 15.0938C43.5433 15.3125 43.3324 15.4766 43.0876 15.5859C42.8428 15.6953 42.559 15.75 42.2361 15.75ZM50.9531 13.5V5.5H52.1211V8.47266H52.1914C52.2591 8.34766 52.3568 8.20312 52.4844 8.03906C52.612 7.875 52.7891 7.73177 53.0156 7.60937C53.2422 7.48438 53.5417 7.42188 53.9141 7.42188C54.3984 7.42188 54.8307 7.54427 55.2109 7.78906C55.5911 8.03385 55.8893 8.38672 56.1055 8.84766C56.3242 9.30859 56.4336 9.86328 56.4336 10.5117C56.4336 11.1602 56.3255 11.7161 56.1094 12.1797C55.8932 12.6406 55.5964 12.9961 55.2188 13.2461C54.8411 13.4935 54.4102 13.6172 53.9258 13.6172C53.5612 13.6172 53.263 13.556 53.0313 13.4336C52.8021 13.3112 52.6224 13.168 52.4922 13.0039C52.362 12.8398 52.2617 12.694 52.1914 12.5664H52.0938V13.5H50.9531ZM52.0977 10.5C52.0977 10.9219 52.1589 11.2917 52.2812 11.6094C52.4036 11.9271 52.5807 12.1758 52.8125 12.3555C53.0443 12.5326 53.3281 12.6211 53.6641 12.6211C54.013 12.6211 54.3047 12.5286 54.5391 12.3437C54.7734 12.1562 54.9505 11.9023 55.0703 11.582C55.1927 11.2617 55.2539 10.901 55.2539 10.5C55.2539 10.1042 55.194 9.7487 55.0742 9.43359C54.957 9.11849 54.7799 8.86979 54.543 8.6875C54.3086 8.50521 54.0156 8.41406 53.6641 8.41406C53.3255 8.41406 53.0391 8.5013 52.8047 8.67578C52.5729 8.85026 52.3971 9.09375 52.2773 9.40625C52.1576 9.71875 52.0977 10.0833 52.0977 10.5ZM61.6559 11.0117V7.5H62.8278V13.5H61.6793V12.4609H61.6168C61.4788 12.7813 61.2575 13.0482 60.9528 13.2617C60.6507 13.4727 60.2744 13.5781 59.8239 13.5781C59.4385 13.5781 59.0973 13.4935 58.8004 13.3242C58.5062 13.1523 58.2744 12.8984 58.1051 12.5625C57.9385 12.2266 57.8551 11.8112 57.8551 11.3164V7.5H59.0231V11.1758C59.0231 11.5846 59.1364 11.9102 59.3629 12.1523C59.5895 12.3945 59.8838 12.5156 60.2457 12.5156C60.4645 12.5156 60.6819 12.4609 60.8981 12.3516C61.1168 12.2422 61.2978 12.0768 61.4411 11.8555C61.5869 11.6341 61.6585 11.3529 61.6559 11.0117ZM64.5071 13.5V7.5H65.6751V13.5H64.5071ZM65.097 6.57422C64.8938 6.57422 64.7193 6.50651 64.5735 6.37109C64.4303 6.23307 64.3587 6.06901 64.3587 5.87891C64.3587 5.6862 64.4303 5.52214 64.5735 5.38672C64.7193 5.2487 64.8938 5.17969 65.097 5.17969C65.3001 5.17969 65.4733 5.2487 65.6165 5.38672C65.7623 5.52214 65.8352 5.6862 65.8352 5.87891C65.8352 6.06901 65.7623 6.23307 65.6165 6.37109C65.4733 6.50651 65.3001 6.57422 65.097 6.57422ZM68.5243 5.5V13.5H67.3564V5.5H68.5243ZM73.0064 7.5V8.4375H69.7291V7.5H73.0064ZM70.608 6.0625H71.7759V11.7383C71.7759 11.9648 71.8098 12.1354 71.8775 12.25C71.9452 12.362 72.0324 12.4388 72.1392 12.4805C72.2486 12.5195 72.3671 12.5391 72.4947 12.5391C72.5884 12.5391 72.6705 12.5326 72.7408 12.5195C72.8111 12.5065 72.8658 12.4961 72.9048 12.4883L73.1158 13.4531C73.0481 13.4792 72.9517 13.5052 72.8267 13.5313C72.7017 13.5599 72.5455 13.5755 72.358 13.5781C72.0507 13.5833 71.7642 13.5286 71.4986 13.4141C71.233 13.2995 71.0181 13.1224 70.8541 12.8828C70.69 12.6432 70.608 12.3424 70.608 11.9805V6.0625ZM80.285 7.5V8.4375H76.8944V7.5H80.285ZM77.8241 13.5V6.80469C77.8241 6.42969 77.9061 6.11849 78.0702 5.87109C78.2342 5.62109 78.4517 5.4349 78.7225 5.3125C78.9933 5.1875 79.2876 5.125 79.6053 5.125C79.8397 5.125 80.0402 5.14453 80.2069 5.18359C80.3735 5.22005 80.4972 5.25391 80.578 5.28516L80.3045 6.23047C80.2498 6.21484 80.1795 6.19661 80.0936 6.17578C80.0077 6.15234 79.9035 6.14062 79.7811 6.14062C79.4972 6.14062 79.2941 6.21094 79.1717 6.35156C79.0519 6.49219 78.992 6.69531 78.992 6.96094V13.5H77.8241ZM83.8911 13.6211C83.3286 13.6211 82.8377 13.4922 82.4184 13.2344C81.9992 12.9766 81.6737 12.6159 81.4419 12.1523C81.2101 11.6888 81.0942 11.1471 81.0942 10.5273C81.0942 9.90495 81.2101 9.36068 81.4419 8.89453C81.6737 8.42839 81.9992 8.06641 82.4184 7.80859C82.8377 7.55078 83.3286 7.42188 83.8911 7.42188C84.4536 7.42188 84.9445 7.55078 85.3638 7.80859C85.783 8.06641 86.1085 8.42839 86.3403 8.89453C86.5721 9.36068 86.688 9.90495 86.688 10.5273C86.688 11.1471 86.5721 11.6888 86.3403 12.1523C86.1085 12.6159 85.783 12.9766 85.3638 13.2344C84.9445 13.4922 84.4536 13.6211 83.8911 13.6211ZM83.895 12.6406C84.2596 12.6406 84.5617 12.5443 84.8013 12.3516C85.0408 12.1589 85.2179 11.9023 85.3325 11.582C85.4497 11.2617 85.5083 10.9089 85.5083 10.5234C85.5083 10.1406 85.4497 9.78906 85.3325 9.46875C85.2179 9.14583 85.0408 8.88672 84.8013 8.69141C84.5617 8.49609 84.2596 8.39844 83.895 8.39844C83.5278 8.39844 83.2231 8.49609 82.9809 8.69141C82.7414 8.88672 82.563 9.14583 82.4458 9.46875C82.3312 9.78906 82.2739 10.1406 82.2739 10.5234C82.2739 10.9089 82.3312 11.2617 82.4458 11.582C82.563 11.9023 82.7414 12.1589 82.9809 12.3516C83.2231 12.5443 83.5278 12.6406 83.895 12.6406ZM88.1017 13.5V7.5H89.2306V8.45312H89.2931C89.4025 8.13021 89.5952 7.8763 89.8712 7.69141C90.1499 7.50391 90.465 7.41016 90.8165 7.41016C90.8894 7.41016 90.9754 7.41276 91.0743 7.41797C91.1759 7.42318 91.2553 7.42969 91.3126 7.4375V8.55469C91.2657 8.54167 91.1824 8.52734 91.0626 8.51172C90.9428 8.49349 90.823 8.48437 90.7032 8.48437C90.4272 8.48437 90.1811 8.54297 89.965 8.66016C89.7514 8.77474 89.5822 8.9349 89.4572 9.14062C89.3322 9.34375 89.2697 9.57552 89.2697 9.83594V13.5H88.1017Z" fill="white"/>
</g>
<path d="M98 0H132C133.657 0 135 1.34315 135 3V17C135 18.6569 133.657 20 132 20H98V0Z" fill="#D7B6FF"/>
<path d="M98 0H132C133.657 0 135 1.34315 135 3V17C135 18.6569 133.657 20 132 20H98V0Z" fill="url(#paint1_linear_301_42)" fill-opacity="0.07"/>
<g filter="url(#filter1_d_301_42)">
<path opacity="0.8" fill-rule="evenodd" clip-rule="evenodd" d="M127.542 13.8051C126.881 14.0497 126.513 14.7653 126.721 15.402C126.929 16.0388 127.634 16.3571 128.295 16.1124C128.957 15.8677 129.325 15.1522 129.117 14.5154C128.909 13.8787 128.203 13.5604 127.542 13.8051ZM105.963 7.33509C106.136 7.3351 106.222 7.42335 106.222 7.59984V15.8953C106.222 16.0718 106.136 16.16 105.963 16.16H104.254C104.082 16.16 103.995 16.0718 103.995 15.8953V7.59984C103.995 7.42335 104.082 7.3351 104.254 7.33509H105.963ZM112.989 7.2645C114.871 7.2645 115.527 8.57058 115.527 10.3709V15.8953C115.527 16.0718 115.44 16.16 115.268 16.16H113.559C113.386 16.16 113.3 16.0718 113.3 15.8953V10.1061C113.3 9.50603 112.868 9.29423 112.368 9.29423H112.16C111.418 9.29423 110.883 9.61192 110.693 9.92962V15.8953C110.693 16.0718 110.607 16.16 110.434 16.16H108.725C108.553 16.16 108.466 16.0718 108.466 15.8953V7.59984C108.466 7.42335 108.553 7.3351 108.725 7.33509H110.434C110.607 7.3351 110.693 7.42335 110.693 7.59984V8.37643C110.952 7.93519 111.608 7.2645 112.885 7.2645H112.989ZM119.566 3.80513C119.739 3.80513 119.825 3.89338 119.825 4.06987V10.1944L122.276 7.54689C122.38 7.42335 122.535 7.3351 122.673 7.33509H124.451C124.676 7.3351 124.883 7.59984 124.572 7.93519L122 10.7592L125.004 15.6835C125.107 15.8776 125.09 16.16 124.796 16.16H123.174C122.949 16.16 122.742 16.0894 122.604 15.8423L120.498 12.277L119.825 12.9654V15.8953C119.825 16.0718 119.739 16.16 119.566 16.16H117.857C117.684 16.16 117.598 16.0718 117.598 15.8953V4.06987C117.598 3.89338 117.684 3.80513 117.857 3.80513L119.566 3.80513ZM104.774 4.22447C104.126 4.42479 103.736 5.0933 103.904 5.7164C104.071 6.33949 104.734 6.68273 105.382 6.48239C106.03 6.28207 106.42 5.61355 106.252 4.99047C106.084 4.36737 105.422 4.02414 104.774 4.22447Z" fill="black"/>
<path opacity="0.8" fill-rule="evenodd" clip-rule="evenodd" d="M127.331 11.7504L126.955 11.7476C126.782 11.7476 126.696 11.6593 126.696 11.4828V4.06987C126.696 3.89338 126.782 3.80513 126.955 3.80513H128.716C128.888 3.80513 128.975 3.89338 128.975 4.06987L128.974 4.32002C128.304 4.4868 127.783 5.18447 127.741 6.05441C127.707 6.75311 127.992 7.38604 128.441 7.74417C128.106 7.97717 127.86 8.37067 127.799 8.84198C127.731 9.35512 127.899 9.84123 128.208 10.1626C127.896 10.303 127.611 10.59 127.449 10.9684C127.334 11.2359 127.298 11.5083 127.331 11.7504V11.7504Z" fill="black"/>
<path opacity="0.8" fill-rule="evenodd" clip-rule="evenodd" d="M127.875 11.1508C127.746 11.4504 127.844 11.7666 128.094 11.8567C128.343 11.9467 128.649 11.7766 128.778 11.4771C128.906 11.1775 128.808 10.8612 128.559 10.7712C128.309 10.6812 128.003 10.8513 127.875 11.1508ZM128.339 8.95778C128.254 9.42154 128.493 9.85691 128.873 9.92941C129.253 10.0019 129.632 9.68426 129.717 9.2205C129.803 8.75675 129.564 8.32137 129.184 8.24887C128.803 8.17638 128.425 8.49402 128.339 8.95778ZM128.244 6.22446C128.213 6.85902 128.612 7.40481 129.134 7.44251C129.655 7.48021 130.103 6.99565 130.134 6.36109C130.164 5.72652 129.765 5.18074 129.244 5.14303C128.722 5.10534 128.274 5.58991 128.244 6.22446Z" fill="black"/>
</g>
<rect x="0.5" y="0.5" width="134" height="19" rx="2.5" stroke="black" stroke-opacity="0.02"/>
<defs>
<filter id="filter0_d_301_42" x="7.24695" y="5.125" width="85.0657" height="11.625" filterUnits="userSpaceOnUse" color-interpolation-filters="sRGB">
<feFlood flood-opacity="0" result="BackgroundImageFix"/>
<feColorMatrix in="SourceAlpha" type="matrix" values="0 0 0 0 0 0 0 0 0 0 0 0 0 0 0 0 0 0 127 0" result="hardAlpha"/>
<feOffset dx="1" dy="1"/>
<feComposite in2="hardAlpha" operator="out"/>
<feColorMatrix type="matrix" values="0 0 0 0 0 0 0 0 0 0 0 0 0 0 0 0 0 0 0.5 0"/>
<feBlend mode="normal" in2="BackgroundImageFix" result="effect1_dropShadow_301_42"/>
<feBlend mode="normal" in="SourceGraphic" in2="effect1_dropShadow_301_42" result="shape"/>
</filter>
<filter id="filter1_d_301_42" x="103.865" y="3.80513" width="28.2706" height="14.3897" filterUnits="userSpaceOnUse" color-interpolation-filters="sRGB">
<feFlood flood-opacity="0" result="BackgroundImageFix"/>
<feColorMatrix in="SourceAlpha" type="matrix" values="0 0 0 0 0 0 0 0 0 0 0 0 0 0 0 0 0 0 127 0" result="hardAlpha"/>
<feOffset dx="1" dy="1"/>
<feGaussianBlur stdDeviation="0.5"/>
<feComposite in2="hardAlpha" operator="out"/>
<feColorMatrix type="matrix" values="0 0 0 0 0 0 0 0 0 0 0 0 0 0 0 0 0 0 0.2 0"/>
<feBlend mode="normal" in2="BackgroundImageFix" result="effect1_dropShadow_301_42"/>
<feBlend mode="normal" in="SourceGraphic" in2="effect1_dropShadow_301_42" result="shape"/>
</filter>
<linearGradient id="paint0_linear_301_42" x1="67.5" y1="0" x2="67.5" y2="20" gradientUnits="userSpaceOnUse">
<stop stop-color="white"/>
<stop offset="0.494819" stop-color="#818181"/>
<stop offset="1"/>
</linearGradient>
<linearGradient id="paint1_linear_301_42" x1="116.5" y1="0" x2="116.5" y2="20" gradientUnits="userSpaceOnUse">
<stop stop-color="white"/>
<stop offset="1"/>
</linearGradient>
</defs>
</svg>
