<?xml version="1.0" encoding="UTF-8" standalone="no"?><!DOCTYPE svg PUBLIC "-//W3C//DTD SVG 1.1//EN" "http://www.w3.org/Graphics/SVG/1.1/DTD/svg11.dtd"><svg width="100%" height="100%" viewBox="0 0 585 1776" version="1.1" xmlns="http://www.w3.org/2000/svg" xmlns:xlink="http://www.w3.org/1999/xlink" xml:space="preserve" xmlns:serif="http://www.serif.com/" style="fill-rule:evenodd;clip-rule:evenodd;stroke-linecap:round;stroke-linejoin:round;stroke-miterlimit:1.5;"><g id="ink-_just-squid" serif:id="ink!_just-squid"><g id="head"><path d="M61.588,492.612c0,0 -7.787,-35.339 -17.042,-77.338c-15.38,-69.798 16.47,-141.479 78.578,-176.847c40.366,-23.045 83.92,-59.209 115.553,-115.363" style="fill:#bc83fb;stroke:#000;stroke-width:38.83px;"/><path d="M544.14,492.612c0,0 4.848,-21.725 11.014,-49.353c12.986,-58.202 -14.727,-117.872 -67.575,-145.499c-52.995,-27.815 -109.76,-79.723 -114.748,-174.696l-0.854,319.551l172.163,49.997Z" style="fill:#bc83fb;stroke:#000;stroke-width:38.83px;"/><path d="M271.404,61.098c0.001,-0.002 8.026,-36.942 49.417,-37.199c22.92,-0.142 43.073,15.169 49.416,37.194c0.001,0.001 18.468,136.346 28.237,208.471c3.615,26.687 15.518,51.566 34.03,71.125c64.995,68.641 209.497,254.328 67.775,427.883c0,0 -11.16,-146.803 -188.333,-146.803c-31.161,0 25.086,0 -6.074,0c-177.173,0 -200.355,146.803 -200.355,146.803c-178.127,-218.137 111.546,-582.703 165.887,-707.474Z" style="fill:#bc83fb;stroke:#000;stroke-width:47.8px;"/></g><path id="body_bg" d="M485.165,826.25c59.883,25.856 80.376,99.619 64.177,160.974c-0.006,0.022 -0.011,0.044 -0.015,0.066c-76.121,391.969 -273.048,737.581 -353.108,764.548c0,0 14.566,-96.568 21.806,-144.572c3.182,-21.093 2.061,-42.611 -3.296,-63.259c-21.189,-80.793 -71.186,-148.893 -91.258,-226.697c-30.168,-116.941 -38.327,-243.9 -77.662,-386.562c-11.653,-41.965 7.464,-86.386 45.952,-106.773c-0.039,-0.076 -0.039,-0.076 -0.039,-0.076c54.691,-10.513 8.172,-71.692 5.561,-116.782c42.402,-127.461 76.691,-171.199 189.145,-172.715c121.934,-11.058 190.547,83.668 222.079,170.506c-10.38,109.706 -29.437,100.192 -23.342,121.342Z" style="fill:#bc83fb;"/><g id="flippers"><path d="M505.519,1167.22c-111.845,446.167 -51.515,489.313 -51.515,489.313l-80.526,-75.666" style="fill:#5a007e;stroke:#000;stroke-width:47.8px;"/><path d="M114.632,1280.12c7.085,192.97 44.58,303.81 -22.91,337.857c0,0 71.031,-2.088 107.259,-60.746" style="fill:#5a007e;stroke:#000;stroke-width:47.8px;"/></g><g id="light"><path d="M455.392,845.552l53.236,32.453c15.547,9.478 23.268,27.853 19.155,45.59c-23.426,100.128 -101.538,423.999 -152.836,516.733l-1.498,5.541l-5.115,19.169c-4.31,20.485 -9.004,45.187 -8.722,32.685l8.722,-32.685c2.245,-10.959 4.41,-20.72 5.615,-22.841l0.998,-1.869c67.527,-250.121 123.383,-436.843 -7.457,-539.047c45.508,-7.88 74.756,-25.832 87.902,-55.729Z" style="fill:#d8b6ff;"/><path d="M298.366,80.959c0.859,-19.666 -33.441,70.938 -35.595,77.779c-60.307,191.603 -222.861,305.457 -155.678,529.851c0.599,2.001 7.039,-11.202 19.882,-33.997c36.458,-64.714 135.245,-82.878 135.245,-82.878c-187.957,-146.439 29.662,-342.272 36.146,-490.755Z" style="fill:#5a007e;"/><path d="M334.482,92.912c4.751,-19.103 13.025,40.858 11.696,47.906c-34.982,185.571 247.214,345.882 149.704,559.724c-0.425,0.933 -7.418,-32.56 -26.602,-57.787c-19.908,-26.181 -52.026,-44.151 -52.026,-44.151c104.517,-117.24 -144.544,-257.319 -82.772,-505.692Z" style="fill:#d8b6ff;"/><path d="M213.77,895.126c-125.926,104.11 17.82,544.184 32.353,724.18c0.159,1.97 -0.512,3.869 -0.819,5.72c-3.224,19.418 -3.006,-33.561 -3.849,-40.684c-7.219,-60.975 -39.367,-151.175 -74.873,-226.186c-36.848,-77.846 -42.666,-198.965 -51.182,-282.213c-13.834,-135.245 -60.477,-169.659 27.876,-237.628c0.248,-0.191 2.731,0.897 6.684,2.883c9.77,26.173 30.992,43.776 63.81,53.928Z" style="fill:#5a007e;"/><path d="M221.199,897.32l3.017,0.727c-27.171,39.278 -62.221,177.976 1.925,557.989c-15.66,-92.769 -101.049,-443.859 -6.891,-559.278l1.949,0.562Z" style="fill:#d8b6ff;"/><path d="M229.538,899.33c19.853,4.357 43.194,6.542 70.031,6.689c-73.29,35.322 -111.4,86.451 -42.925,437.052c19.978,102.293 -11.207,202.261 -10.521,276.235c0.019,1.977 -0.512,3.869 -0.819,5.72c-3.224,19.418 -3.006,-33.561 -3.849,-40.684c-23.438,-278.138 -61.397,-522.872 -11.917,-685.012Z" style="fill:#5a007e;"/></g><path id="body_line" d="M485.165,826.25c59.883,25.856 80.376,99.619 64.177,160.974c-0.006,0.022 -0.011,0.044 -0.015,0.066c-76.121,391.969 -273.048,737.581 -353.108,764.548c0,0 14.566,-96.568 21.806,-144.572c3.182,-21.093 2.061,-42.611 -3.296,-63.259c-21.189,-80.793 -71.186,-148.893 -91.258,-226.697c-28.861,-111.876 -37.579,-232.92 -72.722,-368.112c-13.613,-52.308 12.668,-106.778 62.085,-128.675c-0.039,-0.089 -0.039,-0.089 -0.039,-0.089" style="fill:none;stroke:#000;stroke-width:47.8px;"/><g id="tenticles"><path d="M330.94,1487.71c-7.247,28.951 4.705,57.396 26.674,63.481c21.969,6.085 45.689,-12.478 52.936,-41.429c7.247,-28.951 -4.706,-57.395 -26.675,-63.481c-21.969,-6.085 -45.688,12.479 -52.935,41.429Z" style="fill:#d8b6ff;stroke:#000;stroke-width:47.8px;"/><path d="M375.149,1349.05c-9.986,36.514 4.39,72.917 32.083,81.243c27.693,8.325 58.284,-14.56 68.27,-51.074c9.986,-36.514 -4.39,-72.918 -32.083,-81.243c-27.693,-8.326 -58.284,14.56 -68.27,51.074Z" style="fill:#d8b6ff;stroke:#000;stroke-width:47.8px;"/><path d="M294.861,1587.31c-13.531,22.432 -10.45,48.869 6.875,58.999c17.326,10.13 42.378,0.142 55.909,-22.29c13.531,-22.433 10.451,-48.869 -6.875,-58.999c-17.326,-10.13 -42.377,-0.142 -55.909,22.29Z" style="fill:#d8b6ff;stroke:#000;stroke-width:47.8px;"/><path d="M236.999,1669.42c-17.263,15.764 -21.137,38.383 -8.646,50.48c12.491,12.097 36.648,9.12 53.91,-6.644c17.263,-15.764 21.137,-38.383 8.646,-50.48c-12.491,-12.097 -36.648,-9.12 -53.91,6.644Z" style="fill:#d8b6ff;stroke:#000;stroke-width:47.8px;"/></g><g id="face"><path d="M289.677,785.548c0,0 0,0.002 0.001,0.004c3.201,8.634 11.431,14.367 20.638,14.376c9.208,0.01 17.45,-5.706 20.668,-14.333c0.063,-0.168 0.095,-0.255 0.095,-0.255" style="fill:none;stroke:#000;stroke-width:17.41px;"/><path d="M369.563,730.226c0,0 1.993,-1.381 5.108,-3.539c20.62,-14.29 48.782,-10.196 64.48,9.374c1.325,1.652 2.116,2.638 2.116,2.638" style="fill:none;stroke:#000;stroke-width:29.87px;"/><path d="M253.404,731.668c0,0 -6.294,-3.257 -14.187,-7.343c-18.502,-9.576 -41.076,-6.06 -55.789,8.691c-4.511,4.523 -7.824,7.845 -7.824,7.845" style="fill:none;stroke:#000;stroke-width:29.87px;"/></g></g></svg>